<svg width="512" height="512" viewBox="0 0 512 512" fill="none" xmlns="http://www.w3.org/2000/svg">
<rect width="512" height="512" fill="#34D399"/>
<path d="M239.2 315.76H275.2V418H239.2V315.76ZM256.48 384.52C238.72 384.52 222.04 381.4 206.44 375.16C191.08 368.92 177.64 360.16 166.12 348.88C154.6 337.36 145.6 323.8 139.12 308.2C132.64 292.36 129.4 274.96 129.4 256C129.4 237.04 132.64 219.76 139.12 204.16C145.6 188.56 154.6 175 166.12 163.48C177.64 151.96 191.08 143.08 206.44 136.84C222.04 130.6 238.72 127.48 256.48 127.48C274 127.48 290.44 130.6 305.8 136.84C321.16 143.08 334.6 151.96 346.12 163.48C357.64 175 366.64 188.56 373.12 204.16C379.6 219.76 382.84 237.04 382.84 256C382.84 274.96 379.6 292.36 373.12 308.2C366.64 323.8 357.64 337.36 346.12 348.88C334.6 360.16 321.16 368.92 305.8 375.16C290.44 381.4 274 384.52 256.48 384.52ZM256.48 353.56C273.52 353.56 288.76 349.6 302.2 341.68C315.88 333.76 326.68 322.48 334.6 307.84C342.52 293.2 346.48 275.92 346.48 256C346.48 235.84 342.52 218.56 334.6 204.16C326.68 189.52 315.88 178.24 302.2 170.32C288.76 162.4 273.52 158.44 256.48 158.44C239.2 158.44 223.72 162.4 210.04 170.32C196.36 178.24 185.56 189.52 177.64 204.16C169.96 218.56 166.12 235.84 166.12 256C166.12 275.92 169.96 293.2 177.64 307.84C185.56 322.48 196.36 333.76 210.04 341.68C223.72 349.6 239.2 353.56 256.48 353.56Z" fill="#064E3B"/>
</svg>
