<svg width="1024" height="1024" viewBox="0 0 1024 1024" fill="none" xmlns="http://www.w3.org/2000/svg">
<rect width="1024" height="1024" fill="#34D399"/>
<path d="M478.4 631.52H550.4V836H478.4V631.52ZM512.96 769.04C477.44 769.04 444.08 762.8 412.88 750.32C382.16 737.84 355.28 720.32 332.24 697.76C309.2 674.72 291.2 647.6 278.24 616.4C265.28 584.72 258.8 549.92 258.8 512C258.8 474.08 265.28 439.52 278.24 408.32C291.2 377.12 309.2 350 332.24 326.96C355.28 303.92 382.16 286.16 412.88 273.68C444.08 261.2 477.44 254.96 512.96 254.96C548 254.96 580.88 261.2 611.6 273.68C642.32 286.16 669.2 303.92 692.24 326.96C715.28 350 733.28 377.12 746.24 408.32C759.2 439.52 765.68 474.08 765.68 512C765.68 549.92 759.2 584.72 746.24 616.4C733.28 647.6 715.28 674.72 692.24 697.76C669.2 720.32 642.32 737.84 611.6 750.32C580.88 762.8 548 769.04 512.96 769.04ZM512.96 707.12C547.04 707.12 577.52 699.2 604.4 683.36C631.76 667.52 653.36 644.96 669.2 615.68C685.04 586.4 692.96 551.84 692.96 512C692.96 471.68 685.04 437.12 669.2 408.32C653.36 379.04 631.76 356.48 604.4 340.64C577.52 324.8 547.04 316.88 512.96 316.88C478.4 316.88 447.44 324.8 420.08 340.64C392.72 356.48 371.12 379.04 355.28 408.32C339.92 437.12 332.24 471.68 332.24 512C332.24 551.84 339.92 586.4 355.28 615.68C371.12 644.96 392.72 667.52 420.08 683.36C447.44 699.2 478.4 707.12 512.96 707.12Z" fill="#064E3B"/>
</svg>
